<?xml version="1.0" encoding="utf-8"?>
<!-- Generator: Adobe Illustrator 27.5.0, SVG Export Plug-In . SVG Version: 6.00 Build 0)  -->
<svg version="1.1" id="Layer_1" xmlns="http://www.w3.org/2000/svg" xmlns:xlink="http://www.w3.org/1999/xlink" x="0px" y="0px"
	 viewBox="0 0 2000 2000" style="enable-background:new 0 0 2000 2000;" xml:space="preserve">
<rect style="fill:#FFFFFF;" width="2000" height="2000"/>
<g>
	<path style="fill:#5568FF;" d="M1165.826,1134.281h-36.854c-11.507,0-20.874,9.367-20.874,20.879v30.561h78.603v-30.561
		C1186.7,1143.647,1177.333,1134.281,1165.826,1134.281z"/>
	<path style="fill:#5568FF;" d="M1291.643,501.221H708.357c-114.398,0-207.136,92.738-207.136,207.136v583.286
		c0,114.398,92.738,207.136,207.136,207.136h583.287c114.398,0,207.136-92.738,207.136-207.136V708.357
		C1498.779,593.959,1406.041,501.221,1291.643,501.221z M819.698,830.719c6.928-16.38,16.844-31.089,29.473-43.718
		c12.629-12.629,27.338-22.545,43.718-29.473c16.969-7.177,34.979-10.813,53.544-10.813s36.58,3.636,53.539,10.813
		c16.38,6.928,31.089,16.844,43.723,29.473c12.629,12.629,22.545,27.338,29.473,43.718c7.173,16.968,10.814,34.979,10.814,53.544
		c0,18.564-3.636,36.58-10.814,53.544c-6.928,16.375-16.844,31.084-29.473,43.718c-12.629,12.629-27.338,22.545-43.723,29.473
		c-16.958,7.178-34.969,10.814-53.539,10.814c-18.565,0-36.58-3.636-53.544-10.819c-16.38-6.928-31.089-16.844-43.718-29.473
		c-12.634-12.629-22.545-27.338-29.473-43.713c-7.177-16.969-10.818-34.98-10.818-53.544
		C808.88,865.698,812.521,847.682,819.698,830.719z M890.635,1069.166c-26.462,0-51.342,10.304-70.052,29.018
		c-18.71,18.714-29.019,43.59-29.019,70.052v118.556h-19.782v-118.556c0-31.749,12.362-61.595,34.812-84.044
		c22.449-22.45,52.295-34.812,84.045-34.812h116.371c39.545,0,76.387,19.588,98.552,52.394l-16.395,11.076
		c-18.48-27.353-49.193-43.684-82.157-43.684H890.635z M1238.319,1280.019c0,11.093-9.023,20.111-20.111,20.111h-133.902
		c-11.088,0-20.111-9.018-20.111-20.111v-74.189c0-11.088,9.023-20.11,20.111-20.11h4.005v-30.561
		c0-22.425,18.24-40.66,40.661-40.66h36.854c22.42,0,40.661,18.235,40.661,40.66v30.561h11.721c11.088,0,20.111,9.023,20.111,20.11
		V1280.019z"/>
</g>
</svg>
